# xmcd
#
# Track frame offsets: 
#        150
#        33090
#        52907
#        62187
#        76487
#        96835
#        123085
#        143085
#        171865
#        191960
#        225457
#        245235
#        267975
#
# Disc length: 3809 seconds
#
# Revision: 0
# Processed by: cddbd v1.5.2PL0 Copyright (c) Steve Scherf et al.
# Submitted via: ExactAudioCopyFreeDBPlugin 1.0
#
DISCID=b10edf0d
DTITLE=Various Artist - More Soul
DYEAR=2004
DGENRE=Soul
TTITLE0=The O'Jays - For The Love Of Money
TTITLE1=Wild Cherry - Baby Don't You Know
TTITLE2=Bill Withers - Ain't No Sunshine
TTITLE3=The Isley Brothers - Work To Do
TTITLE4=Johnnie Taylor - Disco 9000
TTITLE5=The Intruders - I Wanna Know Your name
TTITLE6=Earth, Wind and Fire - After The Love has Gone
TTITLE7=Harold Melvin and The Blue Notes - The Love I Lost
TTITLE8=The Emotions - Flowers
TTITLE9=Heatwave - The Groove Line
TTITLE10=Isley Jasper Isley - Kiss And Tell
TTITLE11=Lisa Lisa and Cult Jam - Head To Toe
TTITLE12=Surface - Your Are My Everything
EXTD=
EXTT0=
EXTT1=
EXTT2=
EXTT3=
EXTT4=
EXTT5=
EXTT6=
EXTT7=
EXTT8=
EXTT9=
EXTT10=
EXTT11=
EXTT12=
PLAYORDER=
